<?xml version="1.0" encoding="UTF-8" standalone="no"?>
<svg width="32" height="32" viewBox="0 0 32 32" fill="none" xmlns="http://www.w3.org/2000/svg">
  <style>
    path { fill: #f97316; }
    @media (prefers-color-scheme: dark) {
      path { fill: #f97316; }
    }
  </style>
  <path fill-rule="evenodd" clip-rule="evenodd" d="M16 32C24.8366 32 32 24.8366 32 16C32 7.16344 24.8366 0 16 0C7.16344 0 0 7.16344 0 16C0 24.8366 7.16344 32 16 32ZM15.4358 6.00841C15.7536 5.97151 16.0766 5.97151 16.3944 6.00841C16.9675 6.07349 17.5115 6.27394 17.9868 6.59561C18.462 6.91727 18.8557 7.35187 19.1346 7.86471C19.4134 8.37756 19.57 8.95334 19.59 9.54091C19.61 10.1285 19.4926 10.7123 19.2481 11.2399C19.0036 11.7675 18.6391 12.2228 18.1833 12.5697C17.7276 12.9166 17.1944 13.1451 16.6266 13.2366C16.0588 13.3282 15.4762 13.2803 14.9277 13.0966C14.3792 12.913 13.8824 12.5987 13.4788 12.1812C13.0752 11.7638 12.7775 11.2567 12.6119 10.7023C12.4463 10.1479 12.4177 9.56266 12.5285 8.99561C12.6393 8.42856 12.8862 7.89707 13.2486 7.44687C13.611 6.99667 14.0781 6.64087 14.6099 6.40821C14.8626 6.29332 15.1293 6.20891 15.4039 6.15686C15.4145 6.15449 15.4251 6.15224 15.4358 6.15011V6.00841ZM15.4358 25.9916C15.7536 25.9547 16.0766 25.9547 16.3944 25.9916C16.9675 26.0567 17.5115 26.2571 17.9868 26.5788C18.462 26.9005 18.8557 27.3351 19.1346 27.8479C19.4134 28.3608 19.57 28.9365 19.59 29.5241C19.61 30.1117 19.4926 30.6955 19.2481 31.2231C19.0036 31.7507 18.6391 32.206 18.1833 32.5529C17.7276 32.8998 17.1944 33.1283 16.6266 33.2198C16.0588 33.3114 15.4762 33.2635 14.9277 33.0798C14.3792 32.8962 13.8824 32.5819 13.4788 32.1644C13.0752 31.747 12.7775 31.2399 12.6119 30.6855C12.4463 30.1311 12.4177 29.5459 12.5285 28.9788C12.6393 28.4118 12.8862 27.8803 13.2486 27.4301C13.611 26.9799 14.0781 26.6241 14.6099 26.3914C14.8626 26.2765 15.1293 26.1921 15.4039 26.1401C15.4145 26.1377 15.4251 26.1354 15.4358 26.1333V25.9916Z"/>
</svg>
